<?xml version="1.0" encoding="UTF-8"?><svg id="a" xmlns="http://www.w3.org/2000/svg" width="314.05608" height="59.30113" viewBox="0 0 314.05608 59.30113"><path d="M36.262,10.44574c3.48053,1.32431,6.23592,4.03437,8.26693,8.1302,1.86509,3.76705,2.79764,8.0288,2.79764,12.78678,0,5.08983-1.03702,9.51903-3.10797,13.28455-2.23842,4.13731-5.32565,6.59849-9.26247,7.38509-1.53325,.29036-3.25316,.43478-5.15896,.43478H6.36293V9.01696H28.49206c2.61021,0,5.19967,.47626,7.76993,1.42878Zm1.11844,21.07369c0-4.01901-.6007-7.31288-1.8021-9.88314-1.53401-3.23242-3.85386-4.84862-6.96183-4.84862h-12.12156v28.15766l12.92966,.06299c2.81684,0,4.91008-1.47026,6.2774-4.41384,1.11921-2.4028,1.67843-5.42782,1.67843-9.07504Z" style="fill:#333;"/><path d="M63.86043,52.46714h-11.62379V9.01696h11.62379V52.46714Z" style="fill:#333;"/><path d="M115.94933,38.94906c0,3.80239-1.26439,7.00715-3.79164,9.61121-2.52801,2.6056-5.73969,3.90686-9.63426,3.90686h-30.7694v-7.7707h25.36079c1.69917,0,3.12871-.39483,4.2894-1.18757,1.32584-.91565,1.98877-2.16775,1.98877-3.75169,0-3.71021-2.61021-5.56455-7.83215-5.56455h-12.80445c-3.6887,0-6.92112-1.13688-9.69725-3.41063-2.7769-2.27375-4.16419-5.16664-4.16419-8.6802,0-3.88535,1.35657-7.03788,4.07125-9.45604,2.71391-2.4197,6.28815-3.62879,10.72274-3.62879h29.40131v7.46037h-25.92078c-1.16069,0-2.3306,.48394-3.51203,1.45182-1.18066,.96788-1.77138,2.1109-1.77138,3.42753,0,1.48408,.56921,2.73004,1.70915,3.7394,1.13918,1.00783,2.51803,1.51327,4.13423,1.51327h14.10955c4.39234,0,7.84214,1.12612,10.35018,3.3799,2.5065,2.25224,3.76014,5.23885,3.76014,8.95981Z" style="fill:#333;"/><path d="M196.65142,10.44574c3.48053,1.32431,6.23592,4.03437,8.26693,8.1302,1.86509,3.76705,2.79764,8.0288,2.79764,12.78678,0,5.08983-1.03702,9.51903-3.10797,13.28455-2.23842,4.13731-5.32565,6.59849-9.26247,7.38509-1.53325,.29036-3.25316,.43478-5.15896,.43478h-23.43424V9.01696h22.12914c2.61021,0,5.19967,.47626,7.76993,1.42878Zm1.11844,21.07369c0-4.01901-.6007-7.31288-1.8021-9.88314-1.53401-3.23242-3.85386-4.84862-6.96183-4.84862h-12.12156v28.15766l12.92966,.06299c2.81684,0,4.91008-1.47026,6.2774-4.41384,1.11921-2.4028,1.67843-5.42782,1.67843-9.07504Z" style="fill:#333;"/><path d="M256.0747,37.75688c0,5.7105-2.27913,9.74487-6.83739,12.10312-3.39834,1.73911-8.26693,2.60713-14.60732,2.60713-6.17523,0-11.12679-1.01397-14.85621-3.04191-4.76566-2.56565-7.14849-6.60003-7.14849-12.10312V9.01696h11.00235v26.93167c0,3.39219,1.22214,5.85338,3.66719,7.38355,1.78136,1.1169,3.99904,1.67612,6.65149,1.67612,4.51601,0,7.62398-.88953,9.32392-2.66859,1.45029-1.53017,2.17543-3.78549,2.17543-6.76288V9.01696h10.62902v28.73992Z" style="fill:#333;"/><path d="M308.04069,52.46714h-12.28978l-11.28964-16.97018h-11.72749v16.97018h-10.31869V9.01696h31.82562c3.60574,0,6.58927,1.39651,8.95136,4.18647s3.54275,6.0869,3.54275,9.89082c0,3.01887-1.01551,5.58145-3.04575,7.68928-2.03101,2.10783-4.59974,3.4306-7.70771,3.96831l12.05934,17.7153Zm-13.86221-29.80613c0-2.02026-.75664-3.57655-2.26838-4.66887-1.51327-1.09232-3.55427-1.63925-6.123-1.63925h-13.05333v12.12002h13.36444c1.94728,0,3.68793-.43171,5.22118-1.29819,1.9058-1.07235,2.85909-2.57641,2.85909-4.51371Z" style="fill:#333;"/><g><path d="M152.12086,6.48885c-9.54813-5.67674-21.8843-2.53193-27.55547,7.00684-3.80603,6.40165-2.83423,9.68484-2.29816,34.86522,.07554,3.71472,4.03054,6.06105,7.32797,4.35676,22.391-11.56203,25.72759-12.27358,29.5325-18.67335,5.67785-9.55001,2.5338-21.88319-7.00684-27.55547Zm-24.82957,41.76274c-.53509-25.20761-1.33757-27.25574,1.59443-32.18729,4.25531-7.15734,13.50735-9.5116,20.66656-5.25518,7.15921,4.25643,9.51045,13.50929,5.25514,20.66663-2.91975,4.91095-4.86566,5.07626-27.51613,16.77584Z" style="fill:#069;"/><circle cx="141.84656" cy="23.77001" r="12.26584" style="fill:#cc6;"/><path d="M136.14512,25.42104c-.1077-.25356-.08624-.53889,.05151-.77058l5.96565-10.03408c.23993-.40355,.76695-.53648,1.16923-.29731l1.95538,1.16255c.40228,.23917,.53724,.76567,.29731,1.16923l-5.14823,8.6592,2.31634,5.39525c.1887,.43612-.01758,.93377-.45039,1.12271l-2.09161,.89817c-.42903,.18257-.93122-.01606-1.12068-.45091l-2.9445-6.85422Z" style="fill:#fff;"/></g></svg>