<svg xmlns="http://www.w3.org/2000/svg" width="500" height="137.09885" viewBox="0 0 500 137.09885"><path d="M98.6128,11.804q7.05888,2.68812,11.17657,10.9953a38.40857,38.40857,0,0,1,3.78252,17.2881,36.6912,36.6912,0,0,1-4.19976,17.96185q-4.54006,8.39268-12.52405,9.9864a37.65176,37.65176,0,0,1-6.9768.58824H58.185V9.87174H88.10656A30.07754,30.07754,0,0,1,98.6128,11.804Zm1.51164,28.49544q0-8.15157-2.435-13.36536Q94.57549,20.378,88.27414,20.378H71.8855V58.45285l17.47962.0855q5.71482,0,8.49186-5.9679A29.10322,29.10322,0,0,0,100.12444,40.29948Z" style="fill:#333"/><path d="M131.81075,20.2104H120.21353V9.87174h11.59722Zm0,48.41353H120.21353V25.08732h11.59722Z" style="fill:#333"/><path d="M180.8946,55.34407a13.67276,13.67276,0,0,1-3.57048,9.49734,11.65881,11.65881,0,0,1-9.03564,3.9501H139.45787v-7.9002h23.63562a6.9601,6.9601,0,0,0,4.234-1.262,4.21338,4.21338,0,0,0,1.71684-3.61152q0-5.46345-7.37695-5.46516H149.59817q-3.85776,0-7.459-3.697a11.286,11.286,0,0,1-3.60468-7.98571q0-6.0534,2.69154-9.75042,3.10878-4.20147,9.15876-4.20318H178.121V33.1551H153.41147a3.05742,3.05742,0,0,0-2.4795,1.3851,5.08762,5.08762,0,0,0-1.04994,3.15324,4.72922,4.72922,0,0,0,4.70592,4.70593h13.02679q6.13548,0,9.70938,3.656A12.75349,12.75349,0,0,1,180.8946,55.34407Z" style="fill:#333"/><path d="M213.50772,34.164H202.16016V53.91451a5.90274,5.90274,0,0,0,1.85022,4.45626,8.33381,8.33381,0,0,0,5.54724,1.76472H213.005v8.48844H202.16016a11.20752,11.20752,0,0,1-8.32086-3.52944,9.85646,9.85646,0,0,1-2.60262-4.62384,26.46063,26.46063,0,0,1-.58824-5.9679V34.164H183.251V25.08732h7.39746V9.87174h11.51172V25.08732h11.34756Z" style="fill:#333"/><path d="M262.17091,68.62393H230.73769a12.63224,12.63224,0,0,1-9.03565-3.56022,11.90455,11.90455,0,0,1-3.74148-9.00486,13.45472,13.45472,0,0,1,3.39606-9.42552,11.02276,11.02276,0,0,1,8.509-3.7278H250.153v-2.353a4.42129,4.42129,0,0,0-.3762-1.89127A10.89737,10.89737,0,0,0,248.55931,36.77a5.38585,5.38585,0,0,0-2.4282-1.72368,12.75194,12.75194,0,0,0-3.51918-.37962H220.90176V25.08732h22.27447a29.92558,29.92558,0,0,1,9.16218,1.04652,14.16347,14.16347,0,0,1,5.21208,3.1464,13.9068,13.9068,0,0,1,3.697,6.03972,31.62743,31.62743,0,0,1,.9234,8.38927ZM250.153,59.71483V51.22639h-14.7915a5.45132,5.45132,0,0,0-3.5739,1.20726,3.9305,3.9305,0,0,0-1.4706,3.20454,3.60017,3.60017,0,0,0,1.42956,2.91042,5.02054,5.02054,0,0,0,3.27636,1.16622Z" style="fill:#333"/><path d="M311.17268,68.62393H299.49V39.96432a3.89248,3.89248,0,0,0-.50616-1.97676,7.1685,7.1685,0,0,0-1.42614-1.72368,5.81243,5.81243,0,0,0-3.868-1.42956H282.26V68.62393H270.57727V25.08732h22.35655a39.54952,39.54952,0,0,1,8.656.67032,11.35829,11.35829,0,0,1,6.72372,4.45626,14.93808,14.93808,0,0,1,2.85912,8.8236Z" style="fill:#333"/><path d="M358.23873,68.62393H339.91437q-10.17281,0-16.01245-5.92686-5.84307-5.92515-5.84136-15.58836,0-9.33147,5.54724-15.46525,5.96619-6.55614,16.39207-6.55614h18.23886V35.1729H341.67909a10.19132,10.19132,0,0,0-7.90021,3.697,12.42322,12.42322,0,0,0-3.27636,8.48845,12.29192,12.29192,0,0,0,3.10878,8.40636,9.8893,9.8893,0,0,0,7.73263,3.52944h16.8948Z" style="fill:#333"/><path d="M402.78766,68.877H382.27791q-7.47954,0-12.98574-6.4296a22.14288,22.14288,0,0,1-5.5062-14.836,22.91643,22.91643,0,0,1,6.00894-15.84487q6.01236-6.67926,13.4064-6.67926h19.50085V34.0785H388.41339a19.75088,19.75088,0,0,0-4.57938.4617,8.50137,8.50137,0,0,0-6.4296,8.615h25.21225v9.0801H377.40441a10.86778,10.86778,0,0,0,.4617,3.4029,7.07621,7.07621,0,0,0,1.8981,2.77362,7.182,7.182,0,0,0,3.41658,1.85022,21.70822,21.70822,0,0,0,4.84956.4617h14.75731Z" style="fill:#333"/><path d="M72.92258,86.59755l-9.49734.0855a26.08411,26.08411,0,0,1-8.32087,17.39754q-8.32086,7.64883-22.69512,7.64712-12.353,0-17.90028-4.85982-4.70934-4.104-4.70934-11.65194a14.68151,14.68151,0,0,1,1.89126-7.62318,17.54629,17.54629,0,0,1,5.84136-5.70114,14.7535,14.7535,0,0,1-6.3441-6.11838A19.28072,19.28072,0,0,1,9.21139,66.7205,14.84965,14.84965,0,0,1,13.288,56.28608a13.1547,13.1547,0,0,1,10.04454-4.40154H49.222V62.64386H30.98311a7.70653,7.70653,0,0,0-4.959,1.75446,5.28187,5.28187,0,0,0-2.18538,4.26132,8.08592,8.08592,0,0,0,2.09988,5.59855,6.71809,6.71809,0,0,0,5.21208,2.33928h4.03218V86.68305H30.73a6.72026,6.72026,0,0,0-4.70592,1.76472,6.166,6.166,0,0,0-1.93572,4.79142,5.81553,5.81553,0,0,0,3.36186,5.9679,23.0854,23.0854,0,0,0,7.9857,2.01438q5.29416.42579,10.29762-4.07322a13.79155,13.79155,0,0,0,5-10.5507l-8.8236.0855V76.25889H72.92258Z" style="fill:#333"/><path d="M473.10128,29.80216a40.08993,40.08993,0,0,0-54.94442,13.97133c-7.589,12.76461-5.65133,19.31115-4.58244,69.51974a10.01944,10.01944,0,0,0,14.61167,8.6872c44.64667-23.0542,51.29969-24.473,58.88652-37.23386A40.08436,40.08436,0,0,0,473.10128,29.80216ZM423.5922,113.07525c-1.067-50.26287-2.66705-54.34676,3.17923-64.18006A30.06592,30.06592,0,1,1,478.45818,79.625C472.63633,89.41717,468.75626,89.74679,423.5922,113.07525Z" style="fill:#069"/><circle cx="452.61477" cy="64.26005" r="24.45755" style="fill:#cc6"/><path d="M441.24633,67.55213a1.7012,1.7012,0,0,1,.10271-1.53651l11.89524-20.00751a1.70713,1.70713,0,0,1,2.33138-.59283l3.89895,2.31808a1.70714,1.70714,0,0,1,.59283,2.33138L449.8021,67.3308l4.61867,10.75789a1.70418,1.70418,0,0,1-.89806,2.23863l-4.17058,1.79092a1.71215,1.71215,0,0,1-2.23458-.89909Z" style="fill:#fff"/><path d="M96.87971,84.216H79.37884v39.02909H68.5165V84.216H51.283V76.23773H96.87971Z" style="fill:#333"/><path d="M119.94955,95.88324H109.5538v27.22541h-9.25249V88.37429h9.25249v4.82952a9.41766,9.41766,0,0,1,1.82267-2.95228,6.95485,6.95485,0,0,1,2.835-1.74627c.54026-.17463,1.11325-.33288,1.72171-.46931a8.76078,8.76078,0,0,1,1.85541-.19645,8.37438,8.37438,0,0,1,2.161.26739Z" style="fill:#333"/><path d="M158.77127,123.10865h-25.078a10.05786,10.05786,0,0,1-7.20882-2.84314,9.4793,9.4793,0,0,1-2.985-7.18153,10.72976,10.72976,0,0,1,2.70944-7.51986,8.80327,8.80327,0,0,1,6.78862-2.97412h16.18572v-1.87724a3.53158,3.53158,0,0,0-.30014-1.51161,8.79113,8.79113,0,0,0-.97136-1.50615,4.297,4.297,0,0,0-1.93727-1.37519,10.19058,10.19058,0,0,0-2.80767-.30014h-17.3208V88.37429h17.771a23.87534,23.87534,0,0,1,7.30977.83493,11.26366,11.26366,0,0,1,4.1583,2.51026,11.0797,11.0797,0,0,1,2.94955,4.81861,25.24092,25.24092,0,0,1,.73671,6.69585Zm-9.5881-7.11058v-6.77225H137.38222a4.33643,4.33643,0,0,0-2.85133.96591,3.14149,3.14149,0,0,0-1.17328,2.55391,2.87,2.87,0,0,0,1.14054,2.32472,4.00291,4.00291,0,0,0,2.61394.92771Z" style="fill:#333"/><path d="M200.74991,88.37429l-15.02063,34.73436H174.19573L159.9118,88.37429H170.976l9.25522,24.27312,9.5881-24.27312Z" style="fill:#333"/><path d="M232.13362,123.31056H215.77055q-5.96733,0-10.36028-5.12966a17.671,17.671,0,0,1-4.393-11.83642,18.27174,18.27174,0,0,1,4.794-12.63862q4.79679-5.337,10.69589-5.33157h15.55816v7.17607H220.66555a15.62386,15.62386,0,0,0-3.65352.36562,6.77488,6.77488,0,0,0-5.12966,6.87593H231.9972v7.24156H211.88237a8.72469,8.72469,0,0,0,.36836,2.71763,5.63805,5.63805,0,0,0,1.51434,2.21012,5.72528,5.72528,0,0,0,2.72581,1.47341,17.303,17.303,0,0,0,3.86908.37109h11.77366Z" style="fill:#333"/><path d="M248.15836,123.10865H238.704V76.23773h9.4544Z" style="fill:#333"/><path d="M296.77282,84.216H279.27194v39.02909H268.40961V84.216H251.17613V76.23773h45.59669Z" style="fill:#333"/><path d="M309.44418,84.48339h-9.25249V76.23773h9.25249Zm0,38.62526h-9.25249V88.37429h9.25249Z" style="fill:#333"/><path d="M366.17333,123.10865h-9.05058v-21.741a5.98124,5.98124,0,0,0-.27013-2.00276,4.6325,4.6325,0,0,0-1.07231-1.57164,5.34564,5.34564,0,0,0-1.60984-1.206,4.46651,4.46651,0,0,0-1.87724-.36563h-6.63855v26.88707h-9.187v-27.089H325.739v27.089h-9.4544V88.37429h37.2146a19.08992,19.08992,0,0,1,5.50075.633,9.55388,9.55388,0,0,1,3.95639,2.71217,15.70209,15.70209,0,0,1,2.37929,3.27971,7.40411,7.40411,0,0,1,.83766,3.48163Z" style="fill:#333"/><path d="M402.78766,123.31056H386.42458q-5.96733,0-10.36028-5.12966a17.671,17.671,0,0,1-4.393-11.83642,18.2717,18.2717,0,0,1,4.79406-12.63862q4.79678-5.337,10.69589-5.33157h15.55815v7.17607H391.31959a15.62374,15.62374,0,0,0-3.65352.36562,6.77485,6.77485,0,0,0-5.12966,6.87593h20.11482v7.24156H382.53641a8.72471,8.72471,0,0,0,.36835,2.71763,5.63827,5.63827,0,0,0,1.51434,2.21012,5.72531,5.72531,0,0,0,2.72582,1.47341,17.30286,17.30286,0,0,0,3.86907.37109h11.77367Z" style="fill:#333"/></svg>